#N canvas 580 125 736 452 10;
#X declare -lib mrpeach;
#X obj 16 19 import mrpeach;
#X obj 85 101 unpackOSC;
#X floatatom 174 203 5 0 0 0 - - -;
#X obj 85 134 routeOSC /wek/outputs;
#X obj 83 60 udpreceive 7005;
#X obj 12 246 select 1;
#X obj 156 245 select 2;
#X obj 450 247 select 4;
#X obj 306 248 select 3;
#X obj 85 175 unpack f;
#X obj 331 17 cnv 15 100 60 empty empty empty 20 12 0 14 -195568 -66577
0;
#N canvas 0 0 450 300 gemwin 0;
#X obj 132 136 gemwin;
#X obj 67 89 outlet;
#X obj 67 10 inlet;
#X obj 67 41 route create;
#X msg 67 70 set destroy;
#X msg 142 68 set create;
#X msg 132 112 create \, 1;
#X msg 198 112 destroy;
#X connect 2 0 3 0;
#X connect 3 0 4 0;
#X connect 3 0 6 0;
#X connect 3 1 5 0;
#X connect 3 1 7 0;
#X connect 4 0 1 0;
#X connect 5 0 1 0;
#X connect 6 0 0 0;
#X connect 7 0 0 0;
#X restore 336 56 pd gemwin;
#X msg 336 37 create;
#X text 332 16 Create window:;
#X obj 231 501 pix_texture;
#X obj 27 412 gemhead;
#X obj 231 429 pix_image;
#X obj 231 541 rectangle 4 3;
#X msg 12 299 open expressions/1.jpg;
#X msg 156 300 open expressions/2.jpg;
#X msg 306 300 open expressions/3.jpg;
#X msg 450 300 open expressions/4.jpg;
#X connect 1 0 3 0;
#X connect 2 0 5 0;
#X connect 2 0 6 0;
#X connect 2 0 8 0;
#X connect 2 0 7 0;
#X connect 3 0 9 0;
#X connect 4 0 1 0;
#X connect 5 0 18 0;
#X connect 6 0 19 0;
#X connect 7 0 21 0;
#X connect 8 0 20 0;
#X connect 9 0 2 0;
#X connect 11 0 12 0;
#X connect 12 0 11 0;
#X connect 14 0 17 0;
#X connect 15 0 16 0;
#X connect 16 0 14 0;
#X connect 18 0 16 0;
#X connect 19 0 16 0;
#X connect 20 0 16 0;
#X connect 21 0 16 0;
#X coords 0 -1 1 1 85 60 1 100 100;
